<svg xmlns="http://www.w3.org/2000/svg" version="1.0" preserveAspectRatio="xMidYMid meet" viewBox="446 296 308 308">

<g transform="translate(0.000000,900.000000) scale(0.100000,-0.100000)" fill="#fefefe" stroke="none">
<path d="M4460 4930 l0 -1110 238 2 237 3 3 867 2 868 433 2 432 3 3 238 2 237 -675 0 -675 0 0 -1110z"/>
<path d="M6190 5390 l0 -650 -190 0 -190 0 -2 218 -3 217 -240 0 -240 0 -3 -867 -2 -868 -430 0 -430 0 0 -240 0 -240 675 0 675 0 0 650 0 650 190 0 190 0 2 -217 3 -218 240 0 240 0 3 868 2 867 430 0 430 0 0 240 0 240 -675 0 -675 0 0 -650z"/>
<path d="M7067 5173 c-4 -3 -7 -395 -7 -870 l0 -863 -432 -2 -433 -3 -3 -237 -2 -238 675 0 675 0 0 1110 0 1110 -233 0 c-129 0 -237 -3 -240 -7z"/>
</g>
</svg>
