<svg xmlns:dc="http://purl.org/dc/elements/1.1/" xmlns:cc="http://creativecommons.org/ns#" xmlns:rdf="http://www.w3.org/1999/02/22-rdf-syntax-ns#" xmlns:svg="http://www.w3.org/2000/svg" xmlns="http://www.w3.org/2000/svg" version="1.1" id="Layer_1" viewBox="0.55 0.88 165.91 175.75">
  <metadata id="metadata66">
    <rdf:RDF>
      <cc:Work rdf:about="">
        <dc:format>image/svg+xml</dc:format>
        <dc:type rdf:resource="http://purl.org/dc/dcmitype/StillImage"/>
        <dc:title/>
      </cc:Work>
    </rdf:RDF>
  </metadata>
  <defs id="defs64"/>
  <filter color-interpolation-filters="sRGB" id="googleDropShadow">
    <feOffset result="offOut" in="SourceGraphic" dx="0.3" dy="0.5" id="feOffset4"/>
    <feGaussianBlur stdDeviation="0.25" result="blurOut" in="offOut" id="feGaussianBlur6"/>
    <feColorMatrix type="matrix" result="blurTransOut" in="blurOut" values="1 0 0 0 0 0 1 0 0 0 0 0 1 0 0 0 0 0 .8 0" id="feColorMatrix8"/>
    <feBlend in2="blurTransOut" mode="normal" in="SourceGraphic" id="feBlend10"/>
  </filter>
  <g id="g12">
  </g>
  <g id="g48">
    <polygon points="13.621,138.311 83.331,176.625 153.4,137.792 166.462,29.46 83.243,0.875 0.554,29.975 " id="polygon50" style="fill:#b3b3b3"/>
    <polygon points="83.05,167.471 146.041,132.609 158.214,35.721 83.05,10.089 " id="polygon52" style="fill:#a6120d"/>
    <polygon points="83.049,167.471 83.049,10.086 9.833,36.183 21.03,133.072 " id="polygon54" style="fill:#dd1b16"/>
    <path d="m 103.74,93.871 -20.69,9.675 H 61.243 L 50.992,129.186 31.925,129.539 83.05,15.804 103.74,93.871 z M 101.74,89 83.187,52.271 67.969,88.368 h 15.08 L 101.74,89 z" id="path56" style="fill:#f2f2f2"/>
    <polygon points="100.454,88.396 83.088,88.396 83.049,103.523 107.062,103.546 118.285,129.543 136.529,129.881 83.049,15.804 83.186,52.271 " id="polygon58" style="fill:#b3b3b3"/>
  </g>
  <g id="g34">
 
   
  </g>
</svg>