<svg xmlns="http://www.w3.org/2000/svg" viewBox="0 0 86 86"><style>.st0{fill:#fff}.st1{fill:#2e2e2e}</style><path class="st0" d=""/><path class="st1" d=""/><circle class="st0" cx="43" cy="43" r="43"/><linearGradient id="SVGID_1_" gradientUnits="userSpaceOnUse" x1="16.325" y1="321.012" x2="16.325" y2="320.012" gradientTransform="matrix(80 0 0 -80 -1263 25684)"><stop offset="0" stop-color="#9b27ad"/><stop offset="1" stop-color="#f44f4f"/></linearGradient><path d="M43 83C20.9 83 3 65.1 3 43S20.9 3 43 3s40 17.9 40 40-17.9 40-40 40z" fill="url(#SVGID_1_)"/><path class="st0" d="M36.9 48.5c-8.4-8.4-10.4-20.9-5.8-31.2-3 1.4-5.9 3.3-8.4 5.8-10.9 10.9-10.9 28.7 0 39.6 10.9 10.9 28.7 10.9 39.6 0 2.5-2.5 4.4-5.3 5.8-8.4-10.2 4.6-22.7 2.7-31.2-5.8zm5.7 18.4c-6.4 0-1"/></svg>